<svg xmlns="http://www.w3.org/2000/svg" xmlns:xlink="http://www.w3.org/1999/xlink" viewBox="0 0 130 130"><defs><style>.cls-1{fill:url(#linear-gradient);}.cls-2{opacity:0.39;}.cls-3{fill:none;}.cls-4{fill:#fff;}</style><linearGradient id="linear-gradient" x1="19.04" y1="110.96" x2="110.96" y2="19.04" gradientUnits="userSpaceOnUse"><stop offset="0" stop-color="#66bd52"/><stop offset="1" stop-color="#0fa0db"/></linearGradient></defs><g id="Layer_2" data-name="Layer 2"><g id="Layer_1-2" data-name="Layer 1"><circle class="cls-1" cx="65" cy="65" r="65"/><g id="Path_410" data-name="Path 410" class="cls-2"><path class="cls-3" d="M104.86,52l-6.79,2.21A34.79,34.79,0,1,1,65,30.23h0V23.08a39.84,39.84,0,0,0-13,2.06A41.91,41.91,0,1,0,104.86,52Z"/><path class="cls-4" d="M65,23.08v7.15h0a34.79,34.79,0,1,0,33.07,24l6.8-2.21a41.91,41.91,0,1,1-52.81-26.9A39.84,39.84,0,0,1,65,23.08Z"/></g><path id="Path_411" data-name="Path 411" class="cls-4" d="M98.07,54.25,104.86,52A41.25,41.25,0,0,0,65,23.08v7.15A34.78,34.78,0,0,1,98.07,54.25Z"/><g id="Group_56" data-name="Group 56"><path id="Path_412" data-name="Path 412" class="cls-4" d="M59.73,74.7H46.82A8.26,8.26,0,0,1,48,71.1c.34-.54.66-1,1-1.44a9.39,9.39,0,0,1,1.16-1.29c.47-.44.84-.77,1.1-1s.62-.53,1.06-.89l.79-.63a19.4,19.4,0,0,0,3.05-3,4.86,4.86,0,0,0,1-2.83A4,4,0,0,0,56,57,4.25,4.25,0,0,0,53,55.9a5.52,5.52,0,0,0-4.6,2.55l-1.23-.91a6.93,6.93,0,0,1,6-3.15,6.2,6.2,0,0,1,4.19,1.49,5.09,5.09,0,0,1,1.73,4,5.77,5.77,0,0,1-.1,1.1,3.82,3.82,0,0,1-.33,1c-.15.34-.3.64-.42.9a4.12,4.12,0,0,1-.62.88c-.28.33-.49.57-.61.74a6.46,6.46,0,0,1-.74.74c-.37.33-.6.53-.68.62s-.32.28-.71.58-.59.47-.61.49l-.78.63-.94.77-.87.77a9.28,9.28,0,0,0-.93,1L50,71a5.23,5.23,0,0,0-.68,1.07,5.3,5.3,0,0,0-.38,1.1H59.73Z"/><path id="Path_413" data-name="Path 413" class="cls-4" d="M74,57.33a14.39,14.39,0,0,1,1.73,7.36A14.23,14.23,0,0,1,74,72a5.67,5.67,0,0,1-10,0,14.23,14.23,0,0,1-1.74-7.35,14.29,14.29,0,0,1,1.74-7.36,5.68,5.68,0,0,1,10,0ZM72.62,70.94a14.47,14.47,0,0,0,1.22-6.28,14.23,14.23,0,0,0-1.22-6.29,3.82,3.82,0,0,0-7.19,0,14.51,14.51,0,0,0-1.23,6.29,14.35,14.35,0,0,0,1.23,6.28,3.81,3.81,0,0,0,7.18,0Z"/><path id="Path_414" data-name="Path 414" class="cls-4" d="M82.27,53a4.28,4.28,0,0,1,0,4.66,2.26,2.26,0,0,1-3.17.41,2,2,0,0,1-.41-.41,4.28,4.28,0,0,1,0-4.66,2.26,2.26,0,0,1,3.17-.42A2.33,2.33,0,0,1,82.27,53Zm-.64,4.08A3.33,3.33,0,0,0,82,55.31a3.38,3.38,0,0,0-.41-1.76,1.31,1.31,0,0,0-2.3,0,3.38,3.38,0,0,0-.41,1.76,3.33,3.33,0,0,0,.41,1.75,1.3,1.3,0,0,0,1.76.54A1.28,1.28,0,0,0,81.63,57.06Zm5.83-4.69L80.79,64.49l-.68-.37L86.78,52Zm1.42,6.48a4.3,4.3,0,0,1,0,4.67,2.26,2.26,0,0,1-3.17.41,2.65,2.65,0,0,1-.41-.41,4.3,4.3,0,0,1,0-4.67,2.26,2.26,0,0,1,3.17-.41,2.65,2.65,0,0,1,.41.41Zm-.64,4.09a4,4,0,0,0,0-3.51,1.31,1.31,0,0,0-2.3,0,3.48,3.48,0,0,0-.41,1.76,3.45,3.45,0,0,0,.41,1.75,1.31,1.31,0,0,0,1.76.54,1.28,1.28,0,0,0,.54-.54Z"/></g><g id="Path_410-2" data-name="Path 410-2" class="cls-2"><path class="cls-3" d="M104.86,52l-6.79,2.21A34.79,34.79,0,1,1,65,30.23h0V23.08a39.84,39.84,0,0,0-13,2.06A41.91,41.91,0,1,0,104.86,52Z"/><path class="cls-4" d="M65,23.08v7.15h0a34.79,34.79,0,1,0,33.07,24l6.8-2.21a41.91,41.91,0,1,1-52.81-26.9A39.84,39.84,0,0,1,65,23.08Z"/></g><path id="Path_411-2" data-name="Path 411-2" class="cls-4" d="M98.07,54.25,104.86,52A41.25,41.25,0,0,0,65,23.08v7.15A34.78,34.78,0,0,1,98.07,54.25Z"/><g id="Group_56-2" data-name="Group 56-2"><path id="Path_412-2" data-name="Path 412-2" class="cls-4" d="M59.73,74.7H46.82A8.26,8.26,0,0,1,48,71.1c.34-.54.66-1,1-1.44a9.39,9.39,0,0,1,1.16-1.29c.47-.44.84-.77,1.1-1s.62-.53,1.06-.89l.79-.63a19.4,19.4,0,0,0,3.05-3,4.86,4.86,0,0,0,1-2.83A4,4,0,0,0,56,57,4.25,4.25,0,0,0,53,55.9a5.52,5.52,0,0,0-4.6,2.55l-1.23-.91a6.93,6.93,0,0,1,6-3.15,6.2,6.2,0,0,1,4.19,1.49,5.09,5.09,0,0,1,1.73,4,5.77,5.77,0,0,1-.1,1.1,3.82,3.82,0,0,1-.33,1c-.15.34-.3.64-.42.9a4.12,4.12,0,0,1-.62.88c-.28.33-.49.57-.61.74a6.46,6.46,0,0,1-.74.74c-.37.33-.6.53-.68.62s-.32.28-.71.58-.59.47-.61.49l-.78.63-.94.77-.87.77a9.28,9.28,0,0,0-.93,1L50,71a5.23,5.23,0,0,0-.68,1.07,5.3,5.3,0,0,0-.38,1.1H59.73Z"/><path id="Path_413-2" data-name="Path 413-2" class="cls-4" d="M74,57.33a14.39,14.39,0,0,1,1.73,7.36A14.23,14.23,0,0,1,74,72a5.67,5.67,0,0,1-10,0,14.23,14.23,0,0,1-1.74-7.35,14.29,14.29,0,0,1,1.74-7.36,5.68,5.68,0,0,1,10,0ZM72.62,70.94a14.47,14.47,0,0,0,1.22-6.28,14.23,14.23,0,0,0-1.22-6.29,3.82,3.82,0,0,0-7.19,0,14.51,14.51,0,0,0-1.23,6.29,14.35,14.35,0,0,0,1.23,6.28,3.81,3.81,0,0,0,7.18,0Z"/><path id="Path_414-2" data-name="Path 414-2" class="cls-4" d="M82.27,53a4.28,4.28,0,0,1,0,4.66,2.26,2.26,0,0,1-3.17.41,2,2,0,0,1-.41-.41,4.28,4.28,0,0,1,0-4.66,2.26,2.26,0,0,1,3.17-.42A2.33,2.33,0,0,1,82.27,53Zm-.64,4.08A3.33,3.33,0,0,0,82,55.31a3.38,3.38,0,0,0-.41-1.76,1.31,1.31,0,0,0-2.3,0,3.38,3.38,0,0,0-.41,1.76,3.33,3.33,0,0,0,.41,1.75,1.3,1.3,0,0,0,1.76.54A1.28,1.28,0,0,0,81.63,57.06Zm5.83-4.69L80.79,64.49l-.68-.37L86.78,52Zm1.42,6.48a4.3,4.3,0,0,1,0,4.67,2.26,2.26,0,0,1-3.17.41,2.65,2.65,0,0,1-.41-.41,4.3,4.3,0,0,1,0-4.67,2.26,2.26,0,0,1,3.17-.41,2.65,2.65,0,0,1,.41.41Zm-.64,4.09a4,4,0,0,0,0-3.51,1.31,1.31,0,0,0-2.3,0,3.48,3.48,0,0,0-.41,1.76,3.45,3.45,0,0,0,.41,1.75,1.31,1.31,0,0,0,1.76.54,1.28,1.28,0,0,0,.54-.54Z"/></g></g></g></svg>