<svg xmlns="http://www.w3.org/2000/svg" xmlns:xlink="http://www.w3.org/1999/xlink" viewBox="0 0 130 130"><defs><style>.cls-1{fill:url(#linear-gradient);}.cls-2{fill:#fff;}</style><linearGradient id="linear-gradient" x1="19.04" y1="110.96" x2="110.96" y2="19.04" gradientUnits="userSpaceOnUse"><stop offset="0" stop-color="#66bd52"/><stop offset="1" stop-color="#0fa0db"/></linearGradient></defs><g id="Layer_2" data-name="Layer 2"><g id="Layer_1-2" data-name="Layer 1"><circle class="cls-1" cx="65" cy="65" r="65"/><path class="cls-2" d="M64.84,38.21H92.55c1.75,0,3.3.39,4.32,2a4.32,4.32,0,0,1,.77,2.43c0,5.36,0,15.42,0,20.77,0,.84-.23,1.18-1.09.92a3,3,0,0,0-.78-.14c-1.41,0-1.41,0-1.41-1.49,0-4.89,0-14.48,0-19.37,0-1.53-.28-1.82-1.79-1.82H36.93c-1.49,0-1.74.26-1.74,1.74q0,19.7,0,39.39c0,1.5.19,1.68,1.76,1.69H58.76c.26,0,.53,0,.8,0s.83-.17,1,.21-.34.58-.56.85a2.36,2.36,0,0,0-.68,1.2c0,1-.68,1-1.43,1h-14c-2.49,0-5,0-7.47,0A4.2,4.2,0,0,1,31.92,83c0-13.29,0-26.59,0-39.88a4.62,4.62,0,0,1,4.94-5c2.82,0,5.65,0,8.47,0Zm3.87,24.24a5.34,5.34,0,0,1-3.89,5.31c-1.68.63-1.92,1.77-1.12,3.4,1.93,4,2,2.58,0,6.52-.8,1.63-.58,2.81,1.07,3.43a5.43,5.43,0,0,1,3.95,5.4c.06,1.73,1.14,2.54,2.79,2.06a5.53,5.53,0,0,1,6.54,2.22,2,2,0,0,0,3.16,0A5.69,5.69,0,0,1,88,88.59c1.47.41,2.4-.5,2.67-2,.12-.71.24-1.42.3-2.13a2.58,2.58,0,0,1,1.63-2.31A24.72,24.72,0,0,0,94.82,81a2.05,2.05,0,0,0,1-2.94c-.35-.8-.77-1.58-1.19-2.35a2.5,2.5,0,0,1,0-2.51l.84-1.58c1.13-2.11.91-3.2-1.31-4a4.66,4.66,0,0,1-3.39-4.85.49.49,0,0,0,0-.12c-.27-1.85-1.13-2.75-2.91-2.26-2.83.78-4.8,0-6.53-2.27a2.12,2.12,0,0,0-3.27.07c-.57.56-1.15,1.11-1.68,1.7a2.5,2.5,0,0,1-2.59.8c-.82-.18-1.65-.28-2.22-.37C69.65,60.2,68.78,60.75,68.71,62.45Zm11-.31a12,12,0,1,1-.1,24c-7.23,0-12.32-6.6-11.9-12.1A11.9,11.9,0,0,1,79.68,62.14ZM42.52,58.46a5.61,5.61,0,0,0-1.09.06,1.35,1.35,0,0,0-1.18,1.4,1.32,1.32,0,0,0,1.09,1.45,5.47,5.47,0,0,0,1.28.15H63.38a5.85,5.85,0,0,0,1.38-.16,1.46,1.46,0,0,0-.09-2.82,5.26,5.26,0,0,0-1.19-.08ZM56.07,73.83c.6,0,1.2,0,1.79,0A1.46,1.46,0,0,0,58,70.9a6.76,6.76,0,0,0-1.19-.12c-5.9,0-8.33,0-14.23,0a5.39,5.39,0,0,0-1.38.18,1.29,1.29,0,0,0-1,1.34,1.32,1.32,0,0,0,1,1.42,4.19,4.19,0,0,0,1.18.11C45.46,73.84,53.39,73.84,56.07,73.83Zm0,6.16c.6,0,1.2,0,1.79,0A1.46,1.46,0,0,0,58,77.06a6.76,6.76,0,0,0-1.19-.12H42.6a5.39,5.39,0,0,0-1.38.18,1.29,1.29,0,0,0-1,1.34,1.32,1.32,0,0,0,1,1.42,4.19,4.19,0,0,0,1.18.11C45.46,80,53.39,80,56.07,80Zm0-12.31c.6,0,1.2,0,1.79,0A1.46,1.46,0,0,0,58,64.74a6.76,6.76,0,0,0-1.19-.12c-5.9,0-8.33,0-14.23,0a5.39,5.39,0,0,0-1.38.18,1.28,1.28,0,0,0-1,1.34,1.32,1.32,0,0,0,1,1.42,4.59,4.59,0,0,0,1.18.1ZM83.93,89.84c-.3.47.13.73.39,1,2.14,2.15,4.26,4.3,6.43,6.41,1,1,2.22.73,2.3-.67.15-2.47,1.18-3.66,3.74-3.78,1.49-.08,1.75-1.25.68-2.36-1.41-1.46-2.86-2.89-4.31-4.31-.29-.29-.56-.87-1-.69s-.34.76-.4,1.19c-.31,2.21-1.53,3.24-3.75,3.1-1-.07-2-.27-3.2-.44A1.1,1.1,0,0,0,83.93,89.84Zm-9.57-.53a11.7,11.7,0,0,0-1.76.27c-2.62.53-4.8,0-5.11-3.45,0-.27,0-.6-.32-.71s-.5.18-.69.37c-1.53,1.51-3.06,3-4.56,4.56-1.19,1.23-.94,2.35.73,2.46,2.45.15,3.46,1.24,3.59,3.64.08,1.49,1.27,1.82,2.34.76C70.74,95.1,72.86,93,75,90.8c.19-.19.35-.42.52-.61A1.05,1.05,0,0,0,74.36,89.31Zm5.33-4.73a10.57,10.57,0,0,0,10.5-10.51A10.7,10.7,0,0,0,79.7,63.63,10.49,10.49,0,0,0,69.23,74.11C68.87,78.72,73.13,84.62,79.69,84.58Zm9.6-37.51a1.39,1.39,0,0,0-1-1.42,4.25,4.25,0,0,0-1.37-.16H42.63c-1.67,0-2.41.5-2.38,1.6v6.55h0c.12.89.78,1.25,2.32,1.25H86.84a4.31,4.31,0,0,0,1.38-.12,1.41,1.41,0,0,0,1.07-1.4Z"/></g></g></svg>